<svg version="1.1" id="Layer_1" xmlns="http://www.w3.org/2000/svg" xmlns:xlink="http://www.w3.org/1999/xlink" x="0px" y="0px" viewBox="0 0 586.7382 159.3362" enable-background="new 0 0 586.7382 159.3362" xml:space="preserve">
<g>
	<g>
		<path opacity="0.7" fill="#EE7623" d="M4.8022,67.7163l28.393-49.117c4.26-7.368,12.126-11.904,20.637-11.9l56.733,0.031"></path>
		<path opacity="0.7" fill="#EE7623" d="M131.1948,140.6968l28.366-49.132c4.256-7.371,4.256-16.451,0-23.822l-28.366-49.132"></path>
		<path fill="#EE7623" d="M159.5548,67.7163l-28.393-49.117c-4.259-7.368-12.126-11.904-20.637-11.9l-56.733,0.031"></path>
		<path opacity="0.7" fill="#EE7623" d="M4.7584,91.5912l28.393,49.117c4.259,7.368,12.126,11.904,20.637,11.9l56.733-0.031"></path>
		<path fill="#EE7623" d="M159.5548,91.5912l-28.393,49.117c-4.259,7.368-12.126,11.904-20.637,11.9l-56.733-0.031"></path>
		<path fill="#EE7623" d="M33.1623,18.6106l-28.366,49.132c-4.256,7.371-4.256,16.451,0,23.822l28.366,49.132"></path>
	</g>
</g>
<g class="hide-mobile">
	<path fill="#54565A" d="M231.7301,42.7398h6.3701l-8.8555,32.0332h-6.4155l-7.3193-22.8164l-7.3193,22.8164h-6.5063
		l-8.9004-32.0332h6.5962l5.8735,22.0478l7.0938-22.0478h6.4609l7.1387,22.1387L231.7301,42.7398z"></path>
	<path fill="#54565A" d="M259.153,68.4029c-1.1294,3.8398-4.6538,7.0479-10.1206,7.0479c-6.0996,0-11.4761-4.3828-11.4761-11.8828
		c0-7.0938,5.2412-11.7021,10.9341-11.7021c6.8677,0,10.979,4.3828,10.979,11.5215c0,0.8584-0.0903,1.7617-0.0903,1.8525h-15.9038
		c0.1353,2.9365,2.6206,5.0605,5.6025,5.0605c2.8013,0,4.3374-1.4014,5.0601-3.3887L259.153,68.4029z M253.5505,61.1284
		c-0.0903-2.2139-1.5361-4.3828-4.9697-4.3828c-3.1177,0-4.8345,2.3496-4.9702,4.3828H253.5505z"></path>
	<path fill="#54565A" d="M267.0133,67.4536c0.1357,1.7617,1.4458,3.3887,4.0664,3.3887c1.9878,0,2.9365-1.0391,2.9365-2.2139
		c0-0.9941-0.6777-1.8076-2.3945-2.1689l-2.9365-0.6777c-4.2925-0.9482-6.2354-3.5244-6.2354-6.6416
		c0-3.9756,3.5244-7.2744,8.3135-7.2744c6.3252,0,8.4487,4.0215,8.7197,6.416l-5.0146,1.1299
		c-0.1812-1.3105-1.1299-2.9824-3.6602-2.9824c-1.5811,0-2.8462,0.9492-2.8462,2.2139c0,1.085,0.813,1.7627,2.0332,1.9883
		l3.1626,0.6777c4.3828,0.9033,6.5967,3.5693,6.5967,6.8223c0,3.6143-2.8013,7.3193-8.6299,7.3193
		c-6.6865,0-8.9912-4.3379-9.2622-6.8672L267.0133,67.4536z"></path>
	<path fill="#54565A" d="M291.5456,52.5435h4.4731v5.332h-4.4731v9.3066c0,1.9434,0.9038,2.5762,2.6206,2.5762
		c0.7231,0,1.5361-0.0908,1.8525-0.1816v4.9707c-0.542,0.2256-1.6265,0.542-3.3887,0.542c-4.3374,0-7.0483-2.5752-7.0483-6.8682
		V57.8755h-4.021v-5.332h1.1294c2.3496,0,3.4341-1.5361,3.4341-3.5234v-3.1182h5.4214V52.5435z"></path>
	<path fill="#54565A" d="M312.8039,74.7525h-6.3706l8.8555-32.0332h6.416l7.3193,22.8164l7.3193-22.8164h6.5059l8.9009,32.0332
		h-6.5962l-5.874-22.0478l-7.0933,22.0478h-6.4609l-7.1387-22.1387L312.8039,74.7525z"></path>
	<path fill="#54565A" d="M358.0304,41.52c2.0781,0,3.7046,1.6709,3.7046,3.75c0,1.9873-1.6265,3.6592-3.7046,3.6592
		c-2.0332,0-3.7051-1.6719-3.7051-3.6592C354.3253,43.1909,355.9972,41.52,358.0304,41.52z M355.0485,74.773V52.5435h6.0088V74.773
		H355.0485z"></path>
	<path fill="#54565A" d="M388.2106,70.7515c0,1.4912,0.0903,3.1182,0.1807,4.0215h-5.7378
		c-0.0903-0.4521-0.2261-1.5361-0.2261-2.5752c-0.9941,1.7617-3.2529,3.1172-6.2349,3.1172
		c-6.3257,0-10.8433-4.9697-10.8433-11.7021c0-6.5059,4.3823-11.6113,10.6626-11.6113c3.8403,0,5.6475,1.5811,6.2803,2.7559V42.062
		h5.9185V70.7515z M376.9157,69.939c3.0723,0,5.4668-2.3496,5.4668-6.3711c0-3.9756-2.3945-6.1895-5.4668-6.1895
		c-3.0728,0-5.5122,2.2588-5.5122,6.2344C371.4035,67.5894,373.7526,69.939,376.9157,69.939z"></path>
	<path fill="#54565A" d="M394.2633,74.773V42.062h6.0093V74.773H394.2633z"></path>
	<path fill="#54565A" d="M411.3869,61.9868l5.4668-0.8135c1.2651-0.1807,1.6719-0.8135,1.6719-1.5811
		c0-1.582-1.2197-2.8916-3.75-2.8916c-2.6206,0-4.0664,1.6719-4.2471,3.6143l-5.3315-1.1299
		c0.3613-3.4785,3.5693-7.3193,9.5332-7.3193c7.0483,0,9.6689,3.9766,9.6689,8.4492v10.9336c0,1.1748,0.1357,2.7559,0.271,3.5244
		h-5.5122c-0.1353-0.5869-0.2256-1.8076-0.2256-2.666c-1.1299,1.7627-3.2529,3.2988-6.5513,3.2988
		c-4.7441,0-7.6357-3.208-7.6357-6.6875C404.7453,64.7427,407.6823,62.5288,411.3869,61.9868z M418.5255,65.7818v-0.9941
		l-5.0151,0.7686c-1.5361,0.2256-2.7559,1.084-2.7559,2.8008c0,1.3105,0.9487,2.5752,2.8916,2.5752
		C416.1759,70.9322,418.5255,69.7124,418.5255,65.7818z"></path>
	<path fill="#54565A" d="M436.0089,74.773h-6.0093V52.5435h5.8286v2.7568c1.3555-2.3047,4.021-3.3438,6.4155-3.3438
		c5.5122,0,8.0425,3.9307,8.0425,8.8105V74.773h-6.0093V61.8062c0-2.4854-1.2197-4.4277-4.1113-4.4277
		c-2.6206,0-4.1567,2.0332-4.1567,4.6084V74.773z"></path>
	<path fill="#54565A" d="M477.1227,70.7515c0,1.4912,0.0908,3.1182,0.1807,4.0215h-5.7378
		c-0.0903-0.4521-0.2261-1.5361-0.2261-2.5752c-0.9937,1.7617-3.2529,3.1172-6.2349,3.1172
		c-6.3252,0-10.8433-4.9697-10.8433-11.7021c0-6.5059,4.3823-11.6113,10.6626-11.6113c3.8403,0,5.6475,1.5811,6.2803,2.7559V42.062
		h5.9185V70.7515z M465.8278,69.939c3.0723,0,5.4668-2.3496,5.4668-6.3711c0-3.9756-2.3945-6.1895-5.4668-6.1895
		s-5.5122,2.2588-5.5122,6.2344C460.3156,67.5894,462.6647,69.939,465.8278,69.939z"></path>
	<path fill="#54565A" d="M486.4289,67.4536c0.1353,1.7617,1.4458,3.3887,4.0659,3.3887c1.9883,0,2.937-1.0391,2.937-2.2139
		c0-0.9941-0.6777-1.8076-2.3945-2.1689l-2.937-0.6777c-4.292-0.9482-6.2349-3.5244-6.2349-6.6416
		c0-3.9756,3.5239-7.2744,8.3135-7.2744c6.3252,0,8.4487,4.0215,8.7197,6.416l-5.0151,1.1299
		c-0.1807-1.3105-1.1294-2.9824-3.6597-2.9824c-1.5811,0-2.8462,0.9492-2.8462,2.2139c0,1.085,0.8135,1.7627,2.0332,1.9883
		l3.1626,0.6777c4.3823,0.9033,6.5962,3.5693,6.5962,6.8223c0,3.6143-2.8008,7.3193-8.6294,7.3193
		c-6.687,0-8.9912-4.3379-9.2622-6.8672L486.4289,67.4536z"></path>
</g>
<path fill="#54565A" d="M208.3189,113.2522c-5.693,0-11.121-4.191-11.121-12.357c0-8.166,5.428-12.314,11.121-12.314
	c5.12,0,8.563,2.648,9.754,7.37l4.017-1.413c-1.589-6.046-6.621-9.929-13.771-9.929c-7.767,0-15.535,5.826-15.535,16.286
	c0,10.46,7.46,16.329,15.535,16.329c7.194,0,12.138-4.192,13.815-10.063l-3.84-1.413
	C217.0139,110.0312,213.6599,113.2522,208.3189,113.2522z M235.1897,94.6723c-6.355,0-10.857,4.811-10.857,11.253
	c0,6.488,4.502,11.298,10.857,11.298c6.356,0,10.858-4.81,10.858-11.298C246.0477,99.4832,241.5457,94.6723,235.1897,94.6723z
	 M235.1897,113.5172c-3.53,0-6.62-2.648-6.62-7.592c0-4.899,3.09-7.547,6.62-7.547c3.531,0,6.621,2.6479,6.621,7.547
	C241.8107,110.8692,238.7207,113.5172,235.1897,113.5172z M274.8155,94.7157c-2.692,0-5.428,0.972-7.105,4.017
	c-1.147-2.736-3.708-4.017-6.356-4.017c-2.47,0-5.118,1.104-6.443,3.443v-2.824h-3.972v21.227h4.104v-12.799
	c0-3.176,1.9859-5.384,4.943-5.384c3.179,0,4.503,2.12,4.503,4.856v13.327h4.148v-12.842c0-3.044,1.986-5.341,4.899-5.341
	c3.134,0,4.502,2.074,4.502,4.856v13.327h4.104v-13.769C282.1425,97.2317,278.5235,94.7157,274.8155,94.7157z M299.4348,94.7157
	c-3.531,0-6.002,1.723-7.018,3.62v-13.726h-4.104v31.952h4.104v-3.09c1.324,2.297,3.752,3.663,6.885,3.663
	c6.311,0,9.886-4.987,9.886-11.298C309.1878,99.6598,305.8778,94.7157,299.4348,94.7157z M298.6837,113.4287
	c-3.662,0-6.311-3.001-6.311-7.592c0-4.588,2.649-7.458,6.311-7.458c3.84,0,6.267,2.87,6.267,7.458
	C304.9508,110.4278,302.4798,113.4287,298.6837,113.4287z M316.1096,84.3012c-1.6331,0-2.957,1.324-2.957,2.999
	c0,1.634,1.324,2.958,2.957,2.958c1.678,0,3.001-1.324,3.001-2.958C319.1106,85.6252,317.7876,84.3012,316.1096,84.3012z
	 M314.0796,116.5612h4.104v-21.227h-4.104V116.5612z M335.4383,94.7157c-2.472,0-4.987,1.015-6.532,3.663v-3.044h-4.06v21.227h4.148
	v-12.268c0-3.222,1.678-5.827,4.943-5.827c3.7079,0,4.943,2.383,4.943,5.341v12.754h4.149v-13.461
	C343.0293,98.3787,340.5143,94.7157,335.4383,94.7157z M357.6314,94.672c-5.34,0-10.152,4.546-10.152,11.21
	c0,7.193,4.988,11.342,10.681,11.342c4.9431,0,8.341-2.956,9.5341-6.708l-3.575-1.235c-0.795,2.382-2.517,4.2791-5.959,4.2791
	c-3.575,0-6.311-2.647-6.399-6.442h15.977c0.044-0.265,0.0891-0.793,0.0891-1.324C367.8275,99.1749,364.1635,94.672,357.6314,94.672
	z M351.8935,103.763c0.177-2.737,2.296-5.427,5.782-5.427c3.752,0,5.738,2.382,5.826,5.427H351.8935z M391.6096,84.6095h-4.105
	v13.726c-0.706-1.723-2.736-3.575-6.488-3.575c-6.001,0-10.061,5.119-10.061,11.122c0,6.311,3.839,11.253,10.061,11.253
	c3.311,0,5.561-1.764,6.577-3.795v0.354c0,1.278,0.133,2.382,0.221,2.867h4.016c-0.044-0.351-0.221-1.897-0.221-3.926V84.6095z
	 M381.4146,113.4715c-3.973,0-6.222-3.221-6.222-7.589c0-4.371,2.471-7.458,6.267-7.458c3.7939,0,6.09,2.998,6.09,7.369
	C387.5497,110.1626,385.2097,113.4715,381.4146,113.4715z M416.0528,85.2715l-12.447,31.29h4.635l3.309-8.739h13.858l3.4,8.739
	h4.677l-12.445-31.29H416.0528z M413.0948,103.8086l5.34-14.035l5.429,14.035H413.0948z M466.0421,88.6264h-3.795v3.441
	c0,1.855-0.971,3.267-3.266,3.267h-1.147v3.752h4.06v11.649c0,3.841,2.295,6.049,5.914,6.049c1.412,0,2.471-0.265,2.825-0.4v-3.5291
	c-0.354,0.0891-1.104,0.177-1.634,0.177c-2.162,0-2.957-0.973-2.957-2.913v-11.033h4.591v-3.752h-4.591V88.6264z M453.8681,95.3347
	h-4.149v12.799c0,3.221-1.677,5.427-5.031,5.427c-3.487,0-4.812-2.56-4.812-5.473v-12.753h-4.148v13.372
	c0,4.811,3.001,8.517,7.944,8.517c2.472,0,5.12-1.013,6.267-3.221c0,0.882,0.088,2.074,0.1769,2.559h3.971
	c-0.088-0.75-0.219-2.251-0.219-3.926V95.3347z M542.7276,84.3012c-1.6331,0-2.957,1.324-2.957,2.999
	c0,1.634,1.324,2.958,2.957,2.958c1.678,0,3.001-1.324,3.001-2.958C545.7286,85.6252,544.4056,84.3012,542.7276,84.3012z
	 M557.0247,88.6264h-3.796v3.441c0,1.855-0.97,3.267-3.266,3.267h-1.146v3.752h4.059v11.649c0,3.841,2.296,6.049,5.915,6.049
	c1.412,0,2.471-0.265,2.825-0.4v-3.5291c-0.3539,0.0891-1.105,0.177-1.634,0.177c-2.162,0-2.957-0.973-2.957-2.913v-11.033h4.5909
	v-3.752h-4.5909V88.6264z M486.2969,94.7157c-2.428,0-4.899,0.838-6.444,3.089V84.6098h-4.149v31.952h4.149v-12.488
	c0.088-3.136,1.766-5.607,4.943-5.607c3.708,0,4.943,2.383,4.943,5.341v12.754h4.148v-13.461
	C493.8869,98.3787,491.373,94.7157,486.2969,94.7157z M528.9631,99.0407v-3.706h-4.061v21.227h4.149v-10.636
	c0-4.677,2.339-6.531,5.826-6.531c0.574,0,1.191,0.042,1.809,0.131v-4.414c-0.22-0.043-0.795-0.131-1.368-0.131
	C533.1551,94.9807,530.5071,95.7738,528.9631,99.0407z M540.6976,116.5612h4.104v-21.227h-4.104V116.5612z M509.1515,94.6723
	c-6.355,0-10.8571,4.811-10.8571,11.253c0,6.488,4.502,11.298,10.8571,11.298c6.356,0,10.858-4.81,10.858-11.298
	C520.0095,99.4832,515.5074,94.6723,509.1515,94.6723z M509.1515,113.5172c-3.53,0-6.6201-2.648-6.6201-7.592
	c0-4.899,3.09-7.547,6.6201-7.547c3.531,0,6.621,2.6479,6.621,7.547C515.7725,110.8692,512.6824,113.5172,509.1515,113.5172z
	 M581.6028,95.3343l-6.355,14.651l-6.619-14.651h-4.768l9.136,18.888l-5.295,11.21h4.545l13.815-30.098H581.6028z"></path>
</svg>